<svg version="1.2" xmlns="http://www.w3.org/2000/svg" viewBox="0 0 242 242" width="500" height="500">
	<style>
		.s0 { opacity: 1;fill: #0c1d39 } 
		.s1 { fill: #909295 } 
	</style>
	<g id="Background">
		<path id="Path 1" class="s0" d="m148.5 18c-1.1 0.47-3.33 0.89-4.95 0.93-1.62 0.04-3.65 0.47-4.5 0.95-0.85 0.49-2.87 1.5-4.49 2.25-1.62 0.75-5.62 3.85-8.88 6.87-3.26 3.02-6.85 7.3-7.97 9.5-1.12 2.2-2.47 5.8-2.98 8-0.52 2.2-1.16 6.7-1.43 10-0.26 3.3 0.06 7.8 0.71 10 0.66 2.2 1.92 6.03 2.8 8.5 0.87 2.47 3.68 7.2 6.22 10.5 2.54 3.3 7.74 8.64 11.55 11.87 3.8 3.23 10.52 8.29 14.92 11.25 4.4 2.96 8.56 5.38 9.25 5.38 0.88 0 1.08-1.1 0.66-3.75-0.32-2.06-1.29-5.33-2.15-7.25-0.86-1.92-2.74-5.03-4.16-6.9-1.43-1.86-6.65-6.76-11.6-10.88-4.95-4.12-10.13-8.9-11.52-10.61-1.39-1.71-3.19-4.42-4-6.02-0.95-1.85-1.48-5.83-1.48-11 0-6.44 0.48-9.11 2.37-13.09 1.31-2.75 3.5-6.35 4.88-8 1.38-1.65 4.82-4.73 7.63-6.85 2.82-2.11 7.48-4.93 10.37-6.25 2.89-1.32 7.05-2.4 9.25-2.4 2.2 0 4-0.45 4-1 0-0.55-0.9-1.45-2-2-1.1-0.55-3.91-0.97-6.25-0.93-2.34 0.04-5.15 0.46-6.25 0.93zm-131.34 3.67c0.22 1.1 2.08 2.07 5.34 2.82 2.75 0.63 6.01 1.67 7.25 2.32 1.24 0.66 3.04 2.65 4 4.44 1.6 2.97 1.78 8.37 2.06 63.25 0.17 33 0.05 61.91-0.25 64.25-0.35 2.66-1.59 5.39-3.31 7.3-2.12 2.35-4.17 3.32-9 4.25-4.84 0.93-6.26 1.6-6.25 2.95 0 1.65 3.22 1.75 53.75 1.72l53.75-0.02c12.4-12.81 16.97-18.54 18.15-20.99 1.18-2.45 2.84-6.03 3.69-7.96 0.85-1.93 2.14-5.84 2.86-8.71 0.71-2.86 1.08-5.41 0.8-5.66-0.27-0.26-1.74-0.73-3.25-1.05-2.39-0.5-2.92-0.16-4.09 2.67-0.73 1.79-2.65 5.28-4.25 7.75-1.6 2.47-3.13 5.04-3.41 5.69-0.27 0.65-3.42 3.7-7 6.77-3.57 3.06-7.85 6.06-9.5 6.66-1.65 0.59-3.9 1.45-5 1.91-1.1 0.45-5.49 1.31-9.75 1.9-4.26 0.59-15.51 1.09-25 1.11-12.87 0.04-17.56-0.28-18.48-1.25-0.92-0.97-1.17-9-1-32.79l0.23-31.5c31.29 0 33.41 0.22 37 2.09 2.41 1.25 4.87 3.65 6.18 6 1.2 2.15 2.44 6.05 2.75 8.66 0.53 4.46 0.74 4.73 3.32 4.5l2.75-0.25v-50c-3.51-0.39-4.51 0.05-4.53 0.75-0.02 0.69-1.33 3.95-2.92 7.25-2.12 4.39-3.92 6.59-6.72 8.22-3.54 2.05-5.12 2.22-21.08 2.25l-17.25 0.03 0.5-58.5 44 0.01 11 5.6c9.62-10.55 12.43-14.17 12.45-14.86 0.04-0.99-11.61-1.25-55.04-1.25-50.99 0-55.06 0.12-54.75 1.67z"/>
		<path id="Path 2" fill-rule="evenodd" class="s1" d="m147.8 17.07c2.41 0.06 2.48 0.16 0.7 0.93-1.1 0.47-2.56 0.89-3.25 0.93-0.69 0.04-1-0.38-0.7-0.93 0.3-0.55 1.76-0.97 3.25-0.93zm15.43 0.3c1.52 0.35 4.12 0.86 5.77 1.13 1.65 0.27 3 0.95 3 1.5 0 0.55-1.8 1-4 1-2.86 0-4.5-0.61-5.77-2.13-1.74-2.1-1.73-2.13 1-1.5zm-147.38 1.63h56.58c49.62 0 56.57 0.18 56.57 1.5 0 0.82-0.45 1.73-1 2-0.55 0.27-1-0.18-1-1 0-1.32-6.78-1.5-55-1.5-51.82 0-54.98 0.1-54.74 1.75 0.16 1.02 1.51 2.03 3.25 2.42 2.89 0.65 2.87 0.67-0.51 0.5-3.02-0.15-3.54-0.55-3.82-2.92zm140.64 2.03c1.66 0 1.75 0.17 0.5 0.97-0.82 0.53-2.4 0.97-3.5 0.97-1.65 0-1.74-0.17-0.5-0.97 0.83-0.53 2.4-0.97 3.5-0.97zm11.5 4.09c8.34-0.07 10.76 0.35 19.75 3.4 5.64 1.91 11.94 3.46 14 3.43 3.03-0.03 4.34-0.72 6.75-3.55 1.95-2.28 3.71-3.4 5-3.2 1.84 0.3 2.07 1.4 2.75 13.31 0.42 7.15 0.64 19.07 0.25 39.99h-7l-0.63-6c-0.35-3.3-1.07-7.58-1.59-9.5-0.52-1.92-1.81-5.29-2.86-7.47-1.06-2.18-4.17-6.39-6.92-9.35-3.25-3.51-7.26-6.46-11.5-8.48-5.72-2.72-7.51-3.08-15-3.05-5.42 0.03-9.4 0.56-11 1.47-1.37 0.78-3.79 2.31-5.38 3.4-1.59 1.09-4.03 4-5.43 6.48-1.69 2.98-2.69 6.53-2.97 10.5-0.32 4.37 0.13 7.63 1.65 12 1.15 3.3 1.87 6.11 1.61 6.25-0.26 0.14-2.84-1.69-5.73-4.06-2.88-2.37-6.93-6.53-8.99-9.25-2.06-2.72-4.04-6.52-4.4-8.44-0.5-2.7-0.04-4.65 1.97-8.5 1.44-2.75 4.1-6.42 5.9-8.16 1.8-1.73 5.07-4.17 7.27-5.41 2.2-1.23 6.03-3.03 8.5-3.99 3.08-1.2 7.5-1.77 14-1.82zm-68.5 5.31l-39 1.07-0.23 27.5c-0.17 20.64 0.08 27.82 1 28.79 0.99 1.04 0.88 1.29-0.52 1.25-1.62-0.04-1.76-2.16-1.91-28.87-0.09-15.86 0.21-29.14 0.66-29.5 0.46-0.37 9.65-0.57 40-0.24zm15.06 15.92c0.06 0.27-0.07 1.55-0.29 2.82-0.22 1.28-0.62 2.1-0.9 1.83-0.27-0.27-0.14-1.55 0.29-2.83 0.43-1.27 0.84-2.1 0.9-1.82zm14.42 15.15l5.76 5.57c3.17 3.07 9.36 8.55 13.76 12.18 4.4 3.63 9.4 8.32 11.1 10.43 1.7 2.1 3.9 5.4 4.89 7.32 0.98 1.92 2.4 5.53 3.14 8 0.74 2.47 1.36 6.86 1.36 9.75q0.02 5.26-1.24 5.29c-0.68 0.03-1.74-0.53-2.35-1.25-0.6-0.71-1.55-4.21-2.11-7.79-0.56-3.58-1.85-8.3-2.87-10.5-1.02-2.2-4.59-6.7-7.94-10-3.35-3.3-9.99-9.6-14.76-14-7.69-7.09-8.68-8.4-8.71-11.5zm-14.98 4.5c0.54 0.83 0.98 2.29 0.99 3.25 0.01 0.96-0.44 1.75-0.99 1.75-0.64 0-1 9.17-1 51l-2.25 0.44c-1.23 0.25-2.7 0.15-3.25-0.21-0.55-0.35 0.13-0.91 4-1.82v-24.96c0-24.18-0.06-24.96-2-25.27-1.47-0.23-2.2 0.43-2.77 2.5-0.43 1.55-1.03 2.6-1.33 2.32-0.31-0.28-0.3-1.74 0.02-3.25 0.5-2.37 1.07-2.75 4.08-2.75 2.96 0 3.51-0.35 3.52-2.25 0.01-1.82 0.2-1.96 0.98-0.75zm-19.5 21.09c1.65-0.05 1.74 0.11 0.5 0.91-0.82 0.53-2.62 0.94-4 0.91-2.29-0.05-2.33-0.12-0.5-0.91 1.1-0.47 2.9-0.88 4-0.91zm71.75 1.93c0.69 0.01 2.38 0.9 3.75 1.98 1.38 1.08 2.95 1.95 3.5 1.95 0.55-0.01 1.9 0.91 3 2.05 1.1 1.14 2.34 2.05 2.75 2.03 0.42-0.02 5.59 3.19 11.5 7.12 5.92 3.94 13.9 9.72 17.75 12.86 3.85 3.13 8.62 7.67 10.61 10.09 1.98 2.42 4.4 5.97 5.38 7.9 0.99 1.93 2.4 5.53 3.14 8 0.74 2.47 1.35 8.1 1.35 12.5 0 5.62-0.63 9.79-2.13 14-1.17 3.3-3.35 7.8-4.84 10-1.49 2.2-4.91 5.95-7.61 8.34-2.69 2.39-6.92 5.27-9.4 6.41-2.47 1.14-7.2 2.66-10.5 3.37-3.3 0.72-8.92 1.32-12.5 1.32-3.57 0.01-10.32-0.67-15-1.52-4.67-0.84-9.79-1.84-11.37-2.23-1.57-0.38-3.04-1.03-3.25-1.44-0.21-0.41-3.75-0.75-7.88-0.75-6.93 0-7.61 0.19-9 2.5-1.14 1.9-2.33 2.5-5 2.5-3.41 0-3.5-0.11-4-8.5l-13.5-0.64c-7.42-0.35-14.73-0.91-16.25-1.25-1.51-0.33-2.75-1.06-2.75-1.61 0-0.55 2.48-1 5.5-1 3.03 0 7.87-0.51 10.75-1.13 2.89-0.61 7.28-2.05 9.75-3.19 2.48-1.14 6.92-3.9 9.88-6.13 2.96-2.23 7.58-6.98 10.25-10.55 2.68-3.57 6.22-9.31 7.87-12.75 1.65-3.44 3-6.59 2.99-7 0-0.41 0.56-1.98 1.25-3.49 0.7-1.51 1.6-2.75 2.01-2.75 0.42-0.01 2.16 1.68 3.87 3.74 2.29 2.75 2.98 4.42 2.58 6.25-0.29 1.38-0.95 4.07-1.45 6-0.51 1.93-1.74 5.3-2.75 7.5-1.01 2.2-3.33 6.14-5.16 8.75-1.84 2.61-3.36 5.09-3.38 5.5-0.03 0.41 1.66 2.35 3.75 4.31 2.09 1.96 5.37 4.27 7.29 5.13 1.93 0.87 5.08 2.16 7 2.88 1.93 0.73 7.33 1.33 12 1.34 5.02 0.02 9.94-0.54 12-1.37 1.93-0.77 5.3-2.61 7.5-4.09 2.43-1.62 5.15-4.8 6.91-8.07 2.5-4.6 2.91-6.46 2.88-12.88-0.02-5.83-0.52-8.39-2.25-11.5-1.22-2.2-3.86-5.73-5.88-7.85-2.01-2.12-6.92-6.29-10.91-9.25-3.98-2.97-7.47-5.4-7.75-5.4-0.27 0-2.07-1.24-4-2.75-3.4-2.67-3.5-2.95-3.51-9.75-0.01-3.85-0.51-8.58-1.13-10.5-0.62-1.92-2.4-6.2-3.97-9.5-1.57-3.3-2.87-6.34-2.87-6.75-0.01-0.41 0.55-0.74 1.23-0.73zm-105.05 9.98c0.47 0 0.41 0.56-0.15 1.25-0.63 0.79-0.92 12.43-0.55 62.25l23 0.5c16.16 0.35 21.37 0.72 17.5 1.24-3.02 0.41-13.15 0.75-22.5 0.77-12.41 0.02-17.34-0.32-18.26-1.24-0.96-0.96-1.31-8.77-1.42-32.35-0.08-17.1 0.23-31.39 0.68-31.75 0.46-0.37 1.22-0.67 1.7-0.67zm67.78 44q2.03-0.01 2.02 2c0 1.5 0.5 1.88 2 1.5 1.1-0.28 2-0.16 2 0.25 0 0.41-2.13 2.58-9.5 8.9l0.33-5.07c0.18-2.8 0.5-5.64 0.72-6.33 0.22-0.69 1.31-1.25 2.43-1.25zm-105.48 26.16c3.44 0.03 3.65 0.15 1.5 0.84-1.37 0.44-3.73 0.85-5.25 0.9-2.05 0.07-2.75 0.61-2.75 2.1 0 1.97 0.75 2 105.5 2.48l-51.5 0.29c-28.32 0.15-52.51 0.05-53.75-0.24-1.32-0.31-2.32-1.36-2.43-2.56-0.12-1.34 0.66-2.35 2.25-2.94 1.34-0.5 4.23-0.89 6.43-0.87z"/>
		<text x="121" y="230" text-anchor="middle" font-family="'Times New Roman', serif" font-size="18" letter-spacing="6" class="s0">ASESORES</text>
	</g>
</svg>