<svg version="1.2" xmlns="http://www.w3.org/2000/svg" viewBox="0 0 1280 193" width="1280" height="193">
	<style>
		.s0 { fill: #101e36 } 
		.s1 { fill: #9398a1 } 
		.s2 { fill: #fdfefe } 
	</style>
	<g id="Background">
		<path id="Path 1" class="s0" d="m139.5 17.92c-2.75 0.98-6.13 2.25-7.5 2.81-1.38 0.56-4.97 3.57-8 6.68-3.03 3.12-6.29 7.22-7.25 9.13-0.97 1.93-2.04 7.11-2.42 11.71-0.51 6.4-0.26 9.71 1.11 14.75 1.07 3.92 3.46 8.89 6.01 12.5 2.33 3.3 6.67 8.08 9.64 10.62 2.98 2.54 9.01 7.16 13.41 10.28 4.4 3.11 8.56 5.64 9.25 5.63 0.89-0.02 1.07-1.11 0.61-3.78-0.34-2.06-1.46-5.33-2.47-7.25-1-1.92-3.08-4.92-4.61-6.66-1.53-1.74-5.71-5.51-9.28-8.38-3.57-2.87-7.54-6.39-8.81-7.84-1.26-1.44-3.4-4.76-4.75-7.37-1.34-2.61-2.44-6.44-2.45-8.5 0-2.2 1.38-6.64 3.34-10.75 2.21-4.64 5.02-8.52 8.3-11.5 2.73-2.48 7.07-5.51 9.66-6.75 2.59-1.24 7.07-2.88 9.96-3.65 5.18-1.37 5.22-1.41 2.5-2.5-1.51-0.6-4.66-1.07-7-1.03-2.34 0.04-6.5 0.87-9.25 1.85zm-110.95 1.08c-0.3 0.55-0.33 1.45-0.05 2 0.27 0.55 2.19 1.29 4.25 1.63 2.06 0.35 4.87 1.19 6.25 1.87 1.37 0.68 3.4 2.53 4.5 4.12 1.93 2.78 2.01 4.75 2.29 56.88 0.24 46.56 0.07 54.59-1.25 58.25-0.85 2.34-2.55 4.88-3.79 5.65-1.24 0.78-4.61 1.68-7.5 2-4.38 0.5-5.25 0.93-5.25 2.6 0 1.97 0.67 2 47.61 2h47.62c12.12-12.16 15.46-16.6 17.56-21 1.71-3.57 3.69-8.89 4.41-11.81 1.13-4.59 1.1-5.43-0.2-6.23-0.82-0.51-2.06-0.94-2.75-0.94-0.69-0.01-2.43 2.34-3.86 5.23-1.44 2.89-3.18 5.93-3.87 6.75-0.69 0.82-1.43 2-1.64 2.61-0.21 0.61-3.08 3.43-6.38 6.28-3.41 2.94-8.16 5.92-11 6.89-4.13 1.42-8.82 1.72-27 1.72h-22l-0.5-56.5c15.11-0.21 21.53-0.18 24-0.07 2.47 0.11 6.52 1.19 8.99 2.39 3.37 1.64 4.8 3.05 5.72 5.68 0.67 1.92 1.69 5.41 2.25 7.75 0.78 3.18 1.48 4.18 2.79 3.99 1.6-0.24 1.77-2.23 2-23l0.25-22.74c-4.62 0-5.09 0.58-5.6 3.75-0.33 2.06-1.16 4.87-1.86 6.25-0.69 1.37-3.01 3.4-5.15 4.5-3.36 1.73-5.85 2-18.39 2h-14.5v-51c26.35-0.42 36.25-0.1 39 0.45 2.75 0.54 5.67 1.69 6.5 2.56 0.83 0.87 1.95 1.57 2.5 1.57 0.55-0.01 1.9-1.62 3-3.58 1.1-1.97 3.69-4.91 5.75-6.54 2.06-1.63 3.75-3.41 3.75-3.96 0-0.65-16.98-1-48.95-1-31.6 0-49.15 0.35-49.5 1zm843.03 31.87c-2.5 0.54-3.34 1.65-5.77 7.63-1.57 3.85-2.84 7.11-2.83 7.25 0.01 0.14 0.58 0.23 1.27 0.22 0.69-0.02 4.59-3.06 8.66-6.75 4.58-4.16 7.16-7.2 6.75-7.97-0.36-0.69-1.67-1.2-2.91-1.13-1.24 0.06-3.56 0.4-5.17 0.75zm-89.08 3.96c-2.2 1.06-5.21 3.21-6.7 4.79-1.48 1.59-3.39 4.57-4.25 6.63-0.85 2.06-1.55 5.32-1.55 7.25 0 1.92 0.7 5.19 1.56 7.25 0.86 2.06 2.58 5.1 3.82 6.75 1.24 1.65 8.07 6.88 15.19 11.63 7.11 4.75 14.62 10.49 16.68 12.75 3.28 3.61 3.75 4.74 3.75 9.12 0 4.38-0.43 5.43-3.5 8.5-2.49 2.49-4.73 3.68-7.75 4.12-2.34 0.34-5.83 0.34-7.75 0.01-1.92-0.33-5.64-1.96-8.25-3.61-2.61-1.66-5.54-4.48-6.5-6.27-0.96-1.79-2.42-5.46-3.25-8.16-0.83-2.7-2.06-5.06-2.75-5.25-0.97-0.26-1.13 2.28-0.69 11.41 0.3 6.46 0.76 12.87 1.02 14.25l0.48 2.5c3.44-3.45 5.11-4.47 5.94-4.48 0.83-0.01 3.86 0.88 6.75 1.98 3.25 1.24 7.63 1.99 11.5 1.98 3.44 0 7.83-0.58 9.75-1.28 1.92-0.7 4.85-2 6.5-2.89 1.65-0.89 3.96-2.68 5.13-3.96 1.18-1.29 2.86-3.81 3.75-5.6 0.89-1.79 1.61-4.94 1.6-7-0.01-2.06-0.57-5.5-1.25-7.64-0.67-2.15-2.81-5.69-4.73-7.88-1.92-2.2-8.9-7.36-15.5-11.49-6.6-4.12-13.49-8.9-15.32-10.62-1.82-1.72-3.99-4.47-4.83-6.12-0.98-1.94-1.3-4.24-0.9-6.5 0.44-2.47 1.71-4.32 4.34-6.28 3.01-2.25 4.75-2.77 9.21-2.77 3.82 0.01 6.87 0.72 10 2.36 2.48 1.29 5.74 4.11 7.25 6.27 1.51 2.15 3.31 6.28 4 9.17 0.69 2.89 1.7 5.1 2.25 4.92 0.62-0.21 0.87-5.38 0.65-13.75-0.19-7.38-0.57-13.65-0.84-13.92-0.27-0.28-1.46 0.73-2.65 2.24-1.19 1.5-2.61 2.75-3.16 2.76-0.55 0.01-3.02-0.95-5.5-2.15-3.02-1.46-6.97-2.3-12-2.55-5.89-0.3-8.36 0.03-11.5 1.53zm-539.73-0.16c-0.4 0.46-0.51 1.17-0.25 1.58 0.27 0.41 1.72 0.74 3.23 0.72 1.51-0.02 3.74 0.77 4.96 1.75 2.2 1.77 2.21 1.91 2.25 36.53l0.04 34.75c-4.26 3.15-6.51 4.05-7.75 4.03-1.24-0.01-2.25 0.42-2.25 0.97 0 0.64 10.83 1 30.5 1 28.06 0 30.57-0.14 31.36-1.75 0.47-0.96 2.04-5.24 3.5-9.5 1.45-4.26 2.37-8.09 2.04-8.5-0.33-0.41-1.25 0.15-2.04 1.25-0.8 1.1-2.78 3.91-4.4 6.25-1.63 2.34-4.42 5.01-6.21 5.94-2.55 1.32-6.11 1.7-16.45 1.75-12.07 0.05-13.33-0.11-14.72-1.94-1.21-1.59-1.52-5.31-1.55-18.25l-0.03-16.25c24.66 0 25.06 0.07 27.25 2.56 1.24 1.41 2.48 3.9 2.75 5.54 0.28 1.64 0.95 3.07 1.5 3.19 0.62 0.13 1.1-4.7 1.25-12.54 0.21-10.78 0.02-12.75-1.25-12.75-0.9 0-1.49 0.91-1.47 2.25 0.01 1.24-1 3.27-2.25 4.51-1.26 1.24-4.08 2.69-6.28 3.23-2.2 0.53-7.37 0.97-11.5 0.97-4.12 0.01-8.06-0.32-8.75-0.73-0.93-0.54-1.19-4.77-1-16.73l0.25-16c22.48 0.37 30.01 0.71 31.25 0.99 1.3 0.29 2.85 1.88 3.68 3.76 0.79 1.79 1.58 4.11 1.75 5.17 0.18 1.05 0.88 2.06 1.57 2.25 0.96 0.25 1.11-1.47 0.63-7.42-0.34-4.26-0.83-7.98-1.08-8.25-0.26-0.28-13.82-0.65-30.14-0.83-16.32-0.18-30 0.05-30.39 0.5zm92.73 16.91c-1.65 0.86-3.83 2.32-4.85 3.24-1.02 0.92-2.54 3.03-3.38 4.68-0.97 1.92-1.39 4.83-1.15 8.06 0.27 3.56 1.2 6.17 3.13 8.75 1.51 2.03 7.81 7.01 14 11.08 6.19 4.06 12.04 8.56 13 10 0.96 1.43 1.77 4.3 1.79 6.36 0.03 2.8-0.67 4.45-2.75 6.52-1.54 1.53-4.14 3.04-5.79 3.36-1.65 0.32-4.91 0.31-7.25-0.03-3.22-0.45-5.28-1.63-8.51-4.85-2.35-2.34-4.94-6.17-5.75-8.52-0.82-2.36-1.94-4.27-2.49-4.27-0.63 0.01-0.72 1.76-0.24 4.77 0.41 2.63 0.74 7.47 0.71 10.77l-0.04 6c3.91-3.74 4.59-3.85 7.38-2.83 1.75 0.65 5.67 1.71 8.69 2.37 4.63 1.02 6.41 0.95 11.25-0.42 3.16-0.89 7.16-2.86 8.88-4.37 1.73-1.51 3.75-3.99 4.5-5.5 0.76-1.51 1.37-4.55 1.37-6.75 0-2.2-0.79-5.64-1.75-7.63-1.07-2.23-4.26-5.46-8.25-8.35-3.57-2.6-9.2-6.52-12.5-8.71-3.3-2.2-7.24-5.42-8.75-7.16-1.59-1.82-2.74-4.31-2.73-5.9 0.01-1.51 0.8-3.71 1.75-4.88 0.95-1.18 2.74-2.64 3.98-3.25 1.24-0.62 3.6-1.12 5.25-1.12 1.65 0 4.8 0.9 7 2 2.2 1.1 4.99 3.46 6.2 5.25 1.21 1.79 2.67 5.23 3.25 7.66 0.58 2.42 1.73 4.63 2.55 4.92 1.31 0.45 1.39-0.89 0.67-10.41-0.46-6-0.94-11.06-1.06-11.24-0.12-0.17-1.19 0.28-2.38 1-1.83 1.12-2.9 1.05-6.95-0.43-2.63-0.97-7.26-1.75-10.28-1.75-3.02 0.01-6.85 0.72-8.5 1.58zm272.06 12.17c-3.12 7.56-9.13 21.62-13.36 31.25-7.2 16.37-7.91 17.56-10.96 18.5-1.79 0.55-3.26 1.34-3.25 1.75 0.01 0.41 4.51 0.75 10.01 0.75 6.33 0 9.82-0.37 9.5-1-0.27-0.55-1.29-0.99-2.25-0.98-0.96 0.01-2.32-0.56-3.02-1.25-0.69-0.7-1.26-1.83-1.25-2.52 0.01-0.69 1.37-4.63 3.02-8.75l3-7.5h24c4.01 8.91 5.47 12.7 5.84 14.16 0.43 1.76 0.15 3.22-0.84 4.3-0.83 0.9-2.29 1.61-3.25 1.58-0.96-0.02-1.75 0.41-1.75 0.96 0 0.62 5 1 13 1 7.15 0 12.99-0.34 12.98-0.75-0.01-0.41-1.48-1.43-3.25-2.25-2.18-1.01-4.04-3.12-5.73-6.5-1.37-2.75-3.49-7.25-4.71-10-1.21-2.75-3.18-7.25-4.37-10-1.19-2.75-3.17-7.25-4.4-10-1.22-2.75-4.21-9.84-6.62-15.77-2.42-5.92-4.91-10.75-5.54-10.75-0.62 0.01-3.69 6.21-6.8 13.77zm259.17-13.05c-0.28 0.44-3.98 9.12-8.21 19.3-4.24 10.17-8.56 20.41-9.61 22.75-1.05 2.34-1.91 4.47-1.91 4.75 0 0.27-1.18 3.09-2.61 6.25-1.44 3.16-3.57 6.77-4.75 8.03-1.18 1.25-2.93 2.26-3.89 2.25-0.96-0.02-1.98 0.42-2.25 0.97-0.32 0.63 3.17 1 9.5 1 5.5 0 10.01-0.34 10.02-0.75 0.02-0.41-1.33-1.09-3-1.5-2.35-0.58-3.02-1.3-3.02-3.25 0-1.38 0.86-4.41 1.92-6.75 1.06-2.34 2.41-5.49 3-7l1.08-2.75 24.5-0.07c4.27 11.29 5.51 15.25 5.52 16.07 0.01 0.82-0.53 2.06-1.2 2.75-0.67 0.69-2.03 1.25-3.02 1.25-0.99 0-1.8 0.45-1.8 1 0 0.62 5 1 13 1 8 0 13-0.38 13-1 0-0.55-0.56-0.98-1.25-0.97-0.69 0.02-2.57-0.99-4.18-2.25-1.62-1.25-4.02-4.76-5.34-7.78-1.32-3.03-3.03-6.85-3.79-8.5-0.77-1.65-5.43-12.45-10.37-24-4.94-11.55-9.39-21.14-9.9-21.3-0.5-0.17-1.15 0.06-1.44 0.5zm145.27 1.52c-3.57 1.38-7.27 3.91-10.54 7.2-2.77 2.79-6.11 7.33-7.42 10.08-1.99 4.18-2.39 6.64-2.46 15-0.07 8.73 0.24 10.64 2.4 15 1.36 2.75 4.29 6.74 6.5 8.86 2.21 2.12 5.6 4.63 7.52 5.56 1.92 0.94 5.98 2.3 9 3.03 3.11 0.74 7.35 1.04 9.75 0.68 2.34-0.35 6.39-1.53 9-2.62 2.61-1.09 6.33-3.58 8.25-5.52 1.92-1.94 2.94-3.52 2.25-3.51-0.69 0.01-1.47 0.47-1.75 1.02-0.28 0.55-3.09 2.23-6.25 3.72-4.24 2.01-7.33 2.73-11.75 2.75-4.69 0.02-6.98-0.55-10.5-2.6-2.48-1.44-5.85-4.57-7.5-6.96-1.65-2.38-3.79-6.82-4.76-9.87-0.98-3.05-1.76-8.02-1.75-11.04 0.01-3.41 0.96-7.97 2.5-12 1.37-3.58 3.95-8.25 5.75-10.39 1.79-2.15 4.95-4.73 7.01-5.75 2.06-1.02 5.78-1.86 8.25-1.86 2.47 0 6.41 0.85 8.75 1.89 2.34 1.04 5.69 3.4 7.45 5.25 1.76 1.85 3.9 5.05 4.75 7.11 0.85 2.06 2.09 4.09 2.75 4.5 0.9 0.56 1.01-0.36 0.46-3.75-0.4-2.48-1.06-7.32-1.45-10.76-0.39-3.44-0.93-6.24-1.21-6.22-0.28 0.02-1.29 0.69-2.25 1.51-1.55 1.3-2.43 1.24-7.75-0.53-3.74-1.25-8.54-1.98-12.75-1.95-4.37 0.04-8.69 0.8-12.25 2.17zm-561.85-0.35c-0.08 0.62 0.64 1.14 1.6 1.16 0.96 0.02 2.65 0.71 3.75 1.54 1.9 1.44 2.01 2.84 2.25 27.97 0.25 26.2 0.23 26.49-2 28.98-1.24 1.39-3.26 2.52-4.5 2.5-1.24-0.01-2.25 0.43-2.25 0.98 0 0.64 9 1 25 1h25c2.19-7.36 3.09-10.74 3.41-12.25 0.33-1.51 0.19-2.64-0.3-2.5-0.48 0.14-2.4 2.25-4.25 4.69-2.31 3.05-4.45 4.7-6.86 5.31-1.92 0.48-7.77 0.73-13 0.56l-9.5-0.31-0.5-27.5c13.95 0 18.9 0.45 20 1 1.18 0.59 2.43 2.74 3.05 5.25 0.58 2.36 1.4 3.8 1.83 3.25 0.42-0.55 0.48-5.5 0.11-11-0.36-5.5-0.72-9.33-0.8-8.5-0.08 0.82-1.16 2.5-2.41 3.73-2.06 2.01-3.29 2.23-12.53 2.25l-10.25 0.02 0.5-25.5c24.58 0.35 25.08 0.44 27.25 2.93 1.24 1.41 2.25 3.47 2.25 4.57 0 1.1 0.45 2 1 2 0.56 0 1-2.67 1-6v-6c-32.16-0.02-43.12-0.3-45.1-0.64-2.33-0.41-3.64-0.23-3.75 0.51zm65.85 0.38c0 0.41 0.79 0.74 1.75 0.72 0.96-0.01 2.75 1 3.98 2.25 2.19 2.24 2.23 2.77 2.27 28.28 0.05 25.76 0.03 26.02-2.22 28.23-1.26 1.22-3.29 2.24-4.53 2.25-1.24 0.01-2.25 0.47-2.25 1.02 0 0.63 6.57 0.99 17.75 0.98 12.84-0.01 19.41-0.45 23.75-1.58 3.3-0.86 7.46-2.66 9.25-3.98 1.79-1.33 3.92-3.77 4.75-5.42 0.83-1.65 1.5-4.58 1.5-6.5 0-1.93-0.85-5.19-1.88-7.25-1.09-2.18-3.29-4.46-5.25-5.44-1.85-0.92-4.16-1.94-5.12-2.25-1.44-0.46-1.53-0.83-0.5-2.1 0.69-0.85 1.7-1.52 2.25-1.48 0.55 0.03 2.2-1.18 3.67-2.71 1.47-1.52 2.97-4.35 3.34-6.27 0.36-1.93 0.17-5.41-0.43-7.75-0.83-3.26-2.07-4.95-5.33-7.25-2.89-2.04-5.86-3.16-9.25-3.49-2.75-0.27-12.31-0.6-21.25-0.75-8.94-0.14-16.25 0.08-16.25 0.49zm137.2 0.01c0.26 0.68 1.83 1.54 3.48 1.91 1.65 0.37 4.43 2.06 6.16 3.75l3.16 3.08c0 47.67-0.11 49.11-2 51-1.1 1.1-3.12 2-4.5 2-1.37 0-2.5 0.45-2.5 1 0 0.6 4.17 1 10.5 1 6.33 0 10.5-0.4 10.5-1 0-0.55-0.9-1-2-1-1.1 0-2.9-0.45-4-1-1.91-0.96-2-2-2-23.5 0-12.38 0.34-22.47 0.75-22.42 0.41 0.04 8.26 8.92 17.43 19.75 9.17 10.82 18.17 21.55 20 23.86 1.83 2.3 3.99 4.44 4.82 4.76 0.83 0.31 1.58 0.45 1.67 0.31 0.09-0.14 0.51-13.76 0.92-30.26 0.71-28.71 0.83-30.07 2.83-31.72 1.14-0.94 1.86-1.78 1.58-1.86-0.27-0.08-4.21-0.32-8.75-0.54-5.09-0.23-8.25 0-8.25 0.62 0 0.55 1.01 0.99 2.25 0.97 1.24-0.02 3.03 0.77 3.97 1.75 1.52 1.56 1.73 4.23 1.75 22.03 0.02 11.14-0.34 20.14-0.8 20-0.46-0.14-3.95-3.89-7.75-8.34-3.81-4.45-11.42-13.43-16.92-19.94-5.5-6.52-10.9-12.84-12-14.06-1.7-1.88-3.41-2.3-11.39-2.81-7.26-0.46-9.27-0.31-8.91 0.66zm255.8-0.26c0 0.55 1.58 1.45 3.5 2 1.92 0.55 4.42 2.24 5.53 3.75 1.92 2.59 2.04 4.17 2.04 27.75 0 22.67-0.17 25.16-1.79 26.72-0.98 0.95-2.79 1.74-4.03 1.75-1.24 0.02-2.47 0.48-2.75 1.03-0.32 0.64 3.5 1 10.5 1 7 0 10.82-0.36 10.5-1-0.27-0.55-1.51-0.99-2.75-0.97-1.24 0.02-3.03-0.77-3.97-1.75-1.53-1.57-1.73-4.31-1.75-23.53-0.02-16.76 0.26-21.74 1.22-21.72 0.69 0.01 2.38 1.54 3.75 3.39 1.38 1.85 7.41 9.15 13.41 16.22 6 7.07 14.1 16.77 18 21.55 3.9 4.78 7.54 8.57 8.09 8.42 0.63-0.18 1.11-11.34 1.29-30.19 0.25-26.67 0.47-30.11 2-31.68 0.94-0.96 2.61-1.92 3.71-2.11 1.1-0.2-2.72-0.36-8.5-0.36-5.77 0-9.37 0.21-8 0.45 1.38 0.25 3.52 1.43 4.78 2.62 2.22 2.11 2.27 2.65 2.25 21.91-0.02 10.86-0.37 19.95-0.78 20.2-0.41 0.25-2.33-1.49-4.25-3.87-1.92-2.38-10.81-12.93-19.75-23.45l-16.25-19.13c-12.67 0-16 0.42-16 1zm155.76 0.24c0.13 0.42 0.91 0.76 1.74 0.76 0.83 0 2.4 0.9 3.5 2 1.9 1.9 2 3.36 2.03 28.75 0.03 24.38-0.12 26.9-1.75 28.47-0.98 0.95-3.02 1.74-4.53 1.75-1.51 0.02-2.75 0.48-2.75 1.03 0 0.62 5.17 1 13.5 1 8.33 0 13.5-0.38 13.5-1 0-0.55-1.12-1-2.5-1-1.37 0-3.17-0.68-4-1.5-1.21-1.21-1.45-4.01-1.25-14.25l0.25-12.75h29c0.46 23.26 0.25 25.25-1.25 26.78-0.96 0.98-2.99 1.77-4.5 1.75-1.51-0.02-2.75 0.42-2.75 0.97 0 0.62 5.17 1 13.5 1 8.33 0 13.5-0.38 13.5-1 0-0.55-0.9-1-2-1-1.1 0-2.9-0.9-4-2-1.9-1.9-2-3.36-2.03-28.75-0.03-24.38 0.12-26.9 1.75-28.47 0.98-0.95 2.68-1.73 3.78-1.74q1.97-0.02 1-0.96c-0.6-0.58-4.85-0.68-10.62-0.27-7.7 0.55-9.29 0.92-8 1.86 1.35 0.97 1.62 3.36 1.62 14.5v13.33h-29c-0.44-21.32-0.16-24.5 1-26.25 1.05-1.58 2.47-2.24 4.75-2.22 1.79 0.01 2.88-0.32 2.42-0.75-0.46-0.43-6.53-0.78-13.49-0.79-6.96-0.01-12.55 0.33-12.42 0.75zm78.04-0.32c0.08 0.32 1.55 0.9 3.26 1.29 1.71 0.4 3.52 1.63 4.02 2.75 0.51 1.12 1.24 13.4 1.62 27.29l0.7 25.25c-4.18 4.33-6.39 5.5-7.85 5.5-1.4 0-2.55 0.45-2.55 1 0 0.65 8.89 0.91 25.16 0.75l25.16-0.25c3.64-10.85 4.69-14.34 4.69-14.75-0.01-0.41-0.35-0.77-0.76-0.79-0.41-0.01-2.21 2.24-4 5-1.79 2.77-4.37 5.49-5.75 6.04-1.37 0.55-7.34 1.02-13.25 1.04-7.54 0.04-11.12-0.34-11.99-1.25-0.88-0.91-1.17-4.93-1-13.79l0.24-12.5c20.85 0 21.83 0.17 23.59 2.25 1.05 1.24 2.13 2.25 2.41 2.25 0.28 0 0.51-3.49 0.51-7.75l0.01-7.75-5.52 6.6-21-0.6-0.57-24c18.55-1.01 23.72-0.83 25.81-0.11 2.6 0.89 3.49 1.95 4.5 5.37 0.69 2.34 1.6 4.25 2.01 4.25 0.41-0.01 0.47-2.82 0.12-6.26-0.35-3.44-0.69-6.31-0.75-6.38-0.07-0.07-11.11-0.33-24.55-0.58-13.43-0.24-24.35-0.18-24.27 0.13zm-760.28 0.73c-0.47 0.38-0.78 3.53-0.69 7.02 0.1 3.48 0.62 6.33 1.17 6.33 0.55 0 1.45-1.8 2-4 0.57-2.29 1.96-4.61 3.25-5.42 1.24-0.78 5.29-1.68 9-2 6.51-0.56 6.79-0.49 7.75 1.92 0.56 1.41 0.96 11.36 0.92 22.75-0.05 11.14-0.39 22.87-0.75 26.07-0.48 4.15-1.24 6.24-2.67 7.27-1.1 0.79-3.01 1.44-4.25 1.43-1.24-0.01-2.25 0.43-2.25 0.98 0 0.62 5.33 1 14 1 9 0 13.82-0.36 13.5-1-0.27-0.55-1.51-0.99-2.75-0.97-1.24 0.02-3.15-0.93-4.25-2.1-1.9-2.03-2-3.52-2-29.29v-27.14c14.12-0.49 14.66-0.34 17.5 2.5 1.65 1.65 3 3.67 3 4.5 0 0.82 0.45 1.5 1 1.5 0.58 0 0.89-2.42 0.75-5.75l-0.25-5.75c-41.18-0.41-53.52-0.22-53.98 0.15zm828.91 5.6c-0.39 3.44-0.43 6.81-0.07 7.5 0.35 0.69 0.98 1.08 1.39 0.87 0.41-0.21 1.09-1.78 1.5-3.5 0.41-1.72 1.99-4.26 3.5-5.65 2.64-2.43 3.26-2.54 15-2.5 7.48 0.02 12.25 0.42 12.25 1.03 0 0.55-3.45 6.06-7.68 12.25-4.22 6.19-12.77 18.79-19 28-6.22 9.21-11.32 17.43-11.32 18.25 0 1.3 3.61 1.5 26.5 1.5h26.5c0.64-3.49 1.34-7.2 1.97-10.5 0.63-3.3 0.89-6.11 0.59-6.25-0.31-0.14-1.01-0.03-1.56 0.25-0.55 0.28-1.22 1.74-1.49 3.25-0.28 1.51-1.74 3.98-3.25 5.48-1.52 1.5-4.34 3.19-6.26 3.75-1.92 0.56-9.12 1.03-16 1.05-6.87 0.01-12.83-0.32-13.22-0.75-0.4-0.43 1.65-4.16 4.55-8.28 2.9-4.13 7.94-11.33 11.19-16 3.25-4.68 9.86-14.13 14.69-21 4.83-6.88 8.78-13.06 8.79-13.75 0-0.97-5.45-1.25-23.93-1.25h-23.93z"/>
		<path id="Path 2" fill-rule="evenodd" class="s1" d="m156 17.22l2.5 1.09c-5.33 1.29-4.6 1.48 0.25 1.57 3.58 0.07 6.25-0.31 6.25-0.88 0-0.55-1.46-1.46-3.25-2.02-1.79-0.56-4.38-0.98-5.75-0.93l-2.5 0.08zm-7.5 7.86c-2.75 1.04-6.8 3.15-9 4.69-2.2 1.54-5.49 5.03-7.31 7.76-1.83 2.73-3.56 6.09-3.86 7.47-0.32 1.43 0.24 4.16 1.31 6.41 1.02 2.15 4.79 6.55 8.36 9.78 3.57 3.23 6.84 5.86 7.25 5.84 0.41-0.02 0.75-0.14 0.76-0.28 0-0.14-0.9-2.84-2-6-1.11-3.16-2-6.76-1.99-8 0.01-1.24 0.57-4 1.25-6.14 0.67-2.15 2.8-5.69 4.73-7.87 1.93-2.19 5.07-4.69 7-5.57 2.13-0.98 6.04-1.58 10-1.55 4.68 0.05 8.04 0.76 12 2.55 3.03 1.36 7.24 4.02 9.38 5.9 2.13 1.89 4.93 5.23 6.21 7.43 1.28 2.2 3.02 6.25 3.86 9 0.84 2.75 1.54 6.57 1.55 8.5 0.02 1.92 0.36 4.09 0.77 4.81 0.4 0.72 1.85 1.17 3.23 1l2.5-0.31v-47c-3.8-0.42-5.12 0.43-6.5 2.5-1.67 2.5-2.67 3-6 3-2.2 0-8.05-1.35-13-3-7.28-2.43-10.58-2.98-17.25-2.91-5.47 0.07-9.94 0.74-13.25 1.99zm-103.74 53.1c0.15 26.58 0.39 51.69 0.55 55.82 0.16 4.12 0.33-16.58 0.39-46 0.05-29.43-0.19-54.54-0.55-55.82-0.36-1.27-0.53 19.43-0.39 46zm68.82-34.68c-0.32 0.82-0.58 5.32-0.58 10v8.5c-5.01 0.25-5.1 0.34-3.25 0.63l2.25 0.37c-0.41 38-0.15 45.88 0.5 45.67 0.62-0.21 1.1-8.67 1.25-22 0.19-16.58 0.53-21.5 1.45-20.92 0.91 0.57 0.97 0.02 0.25-2.25-0.52-1.65-0.95-7.16-0.95-12.25 0-5.09-0.07-9.25-0.17-9.25-0.09 0-0.42 0.67-0.75 1.5zm9.03 3.75c-0.32 1.24-0.58 3.82-0.58 5.75 0 1.92 0.44 4.17 0.97 5 0.68 1.04 0.97-0.7 0.98-5.75 0.01-3.99-0.16-7.25-0.38-7.25-0.23 0-0.67 1.01-0.99 2.25zm178.14 7.41c2.79 0.29 3.25 0.72 3.26 3.09 0 1.51 0.32 5.22 0.69 8.25 0.61 4.93 0.51 5.42-1.01 4.75-0.96-0.43-1.69-0.32-1.69 0.25 0 0.55 0.79 0.88 1.75 0.74 1.2-0.18 1.85-1.35 2.08-3.75 0.19-1.92 0.07-5.85-0.25-8.74l-0.58-5.25c-7.36 0.31-7.38 0.33-4.25 0.66zm-173.75 2.59c-0.01 0.69 0.84 2.82 1.87 4.75 1.03 1.92 6.32 7.35 11.75 12.05 6.33 5.48 11.04 10.51 13.12 14 2.09 3.51 3.46 7.4 3.87 10.95 0.35 3.02 1.14 6.08 1.76 6.79 0.62 0.72 1.81 1.28 2.63 1.26 1.24-0.03 1.39-1.14 0.9-6.29-0.34-3.44-1.61-8.51-2.83-11.26-1.23-2.75-3.66-6.76-5.4-8.91-1.74-2.15-7.78-7.66-13.42-12.25-5.64-4.59-10.7-9.24-11.25-10.34-0.55-1.1-1.45-2-2-2-0.55 0-1 0.56-1 1.25zm138.58 1.3c-0.5 0.43-0.84 7.91-0.75 16.62 0.14 13.08 0.43 15.92 1.67 16.33 0.82 0.27 4.99 0.45 9.25 0.38 4.26-0.06 9.1-0.46 10.75-0.88 1.93-0.49-1.17-0.81-8.75-0.88l-11.75-0.12v-30c26.26-0.03 30.84 0.32 31.73 1.23 0.68 0.7 1.47 0.93 1.75 0.52 0.29-0.41-0.27-1.16-1.23-1.66-0.96-0.5-8.5-1.23-16.75-1.61-8.25-0.39-15.41-0.36-15.92 0.07zm781.13 11.36c-0.39 0.6-0.26 1.09 0.29 1.09 0.55 0 1.05 2.14 1.12 4.75 0.06 2.61 0.49 6.1 0.95 7.75 0.53 1.9 0.64 0.07 0.29-5-0.29-4.4-0.85-8.38-1.24-8.84-0.38-0.46-1.02-0.35-1.41 0.25zm-685.71 1.09c0 0.55 0.68 0.77 1.5 0.5 1.18-0.4 1.57 0.61 1.82 4.75l0.31 5.25c0.35-10.9 0.16-11.5-1.63-11.5-1.1 0-2 0.45-2 1zm21.02 0.73c-0.01 0.42 12.24 0.77 27.23 0.77h27.25c0.39 9.08 0.08 11.5-0.5 11.5-0.55 0-1.2-0.79-1.43-1.75-0.24-0.96-0.36-0.63-0.25 0.75 0.1 1.47 0.8 2.5 1.68 2.5 1.19 0 1.5-1.45 1.5-7v-7c-42.99-0.41-55.48-0.19-55.48 0.23zm95.23-0.01l21.75 0.28c0 9.91-0.44 12.15-1.25 12.42-0.69 0.23-0.46 0.46 0.5 0.5 1.52 0.07 1.72-0.79 1.5-6.67l-0.25-6.75-44-0.06zm50.75 0.02c4.67 0.19 12.1 0.19 16.5 0 4.4-0.18 0.58-0.33-8.5-0.33-9.08 0-12.67 0.15-8 0.33zm191.42 0.8c0.05 0.93 0.84 1.42 2 1.25 1.06-0.16 2.07-0.85 2.25-1.54 0.2-0.74-0.63-1.25-2-1.25-1.47 0-2.31 0.57-2.25 1.54zm247.58-0.59c6.26 0.33 9.49 0.82 8 1.22l-2.5 0.66c3.75-0.26 4.99-0.89 5.17-1.58 0.25-0.95-2.24-1.2-10.42-1.05l-10.75 0.19zm136 0.05c0 0.55 0.56 1.19 1.25 1.42 0.69 0.23 2.6 0.69 4.25 1.02 2.85 0.56 2.9 0.52 1-0.91-1.85-1.39-1.43-1.52 5.5-1.81 6.96-0.3 6.8-0.33-2.25-0.52-5.97-0.12-9.75 0.19-9.75 0.8zm68.78-0.28l20.22 0.28 0.5 8.01v-8.51l-40.94-0.06zm63.72 0.05c17.48 0.22 24.2 0.63 24.74 1.52q0.74 1.23 0.75-0.54c0.01-1.62-1.74-1.73-24.74-1.52l-24.75 0.23zm-842.15 3.11c-2.29 0.35-4.45 0.89-4.82 1.21-0.36 0.32 2.97 0.32 7.41 0l8.07-0.58c0.22 44.77 0.55 52.95 1.03 49.5 0.42-3.03 0.81-14.61 0.86-25.75 0.06-11.43-0.34-21.34-0.9-22.75-0.8-2-1.66-2.48-4.25-2.38-1.79 0.07-5.12 0.41-7.4 0.75zm74.16 0.44c-0.24 0.72-0.33 6.68-0.19 13.25l0.25 11.94 0.43-25.5 17.5-0.59c-15.26-0.36-17.66-0.07-17.99 0.9zm-53.01 0.35c-0.46 0.37-0.71 10.61-0.57 22.75 0.15 12.15 0.61 24.56 1.03 27.59 0.48 3.45 0.81-4.83 0.9-22.25l0.14-27.75 13.5-0.61c-10.98-0.3-14.54-0.09-15 0.27zm42.17 26.34c0.33 15.12 0.77 27.72 0.99 28 0.22 0.27 0.35-11.2 0.3-25.5-0.06-14.3-0.5-26.9-0.99-28-0.54-1.2-0.66 9.04-0.3 25.5zm703.33-15c0 7 0.42 12.21 1 12.5 0.64 0.32 1-4 1-12 0-7.67-0.39-12.5-1-12.5-0.61 0-1 4.66-1 12zm-636.56 16.5c0 14.85 0.14 21.15 0.31 14 0.17-7.15 0.17-19.3 0-27-0.17-7.7-0.31-1.85-0.31 13zm441.79-7.25c-0.14 12.35-0.6 19.75-1.23 19.75-0.55 0-0.73 0.56-0.39 1.25q0.6 1.23 1.49 0.25c0.49-0.55 0.77-10 0.63-21l-0.27-20zm184.95 7.75c-0.1 18.06 0.18 26.98 0.82 26 0.53-0.83 0.92-8.87 0.87-18-0.05-9.08-0.42-20.78-0.82-26-0.54-7.07-0.77-2.47-0.87 18zm-992.05-25.25c0.2 0.41 1.92 3.9 3.81 7.75 2.92 5.95 3.49 8.27 3.81 15.5l0.37 8.5c13.47 9.28 19.44 14 21.95 16.49 2.52 2.48 5.42 6.08 6.45 8.01 1.3 2.44 1.87 5.62 1.89 10.5 0.02 5.61-0.47 7.89-2.46 11.5-1.55 2.81-4.35 5.72-7.47 7.76-3.45 2.26-6.68 3.45-10.48 3.87-3.03 0.34-7.75 0.3-10.5-0.09-2.75-0.38-7.25-1.77-10-3.08-2.75-1.31-6.58-3.7-8.5-5.31l-3.5-2.92c5.79-8.32 8.61-14.11 10-18.23 1.4-4.13 2.32-8.18 2.06-9-0.26-0.83-1.39-2.74-2.52-4.25-1.12-1.51-2.49-2.75-3.04-2.75-0.55 0-2 2.59-3.23 5.75-1.22 3.16-3.57 8.22-5.21 11.25-1.65 3.02-5.74 8.2-9.09 11.5-3.42 3.36-8.72 7.27-12.04 8.88-4.58 2.23-7.93 3.02-14.7 3.5-4.83 0.34-8.75 1.07-8.73 1.62 0.02 0.55 1.27 1.37 2.77 1.83 1.5 0.45 7.9 1.13 14.23 1.5l11.5 0.67c0.89 6.21 1.51 7.05 3.25 7.25q2.25 0.25 3.75-2.25c1.36-2.27 2.12-2.5 8.25-2.52 3.71-0.01 7.2 0.38 7.75 0.87 0.55 0.49 4.71 1.63 9.25 2.52 4.54 0.9 11.29 1.63 15 1.64 3.71 0 9.11-0.45 12-1 2.89-0.56 7.27-1.91 9.75-3.01 2.47-1.1 6.57-3.91 9.09-6.25 2.53-2.34 5.55-5.83 6.71-7.75 1.16-1.93 2.92-5.75 3.9-8.5 1.09-3.02 1.8-7.78 1.8-12 0-4.52-0.71-8.95-2.01-12.5-1.1-3.03-3.55-7.75-5.43-10.5-1.89-2.75-6.27-7.3-9.75-10.11-3.47-2.81-13.85-10.12-23.06-16.25-9.21-6.13-17.03-11.14-17.37-11.14-0.34 0-0.45 0.34-0.25 0.75zm507.3 26.75c0 13.75 0.14 19.6 0.31 13 0.18-6.6 0.18-17.85 0.01-25-0.18-7.15-0.32-1.75-0.32 12zm-96.93-17.5c0 3.19 0.33 5.29 0.73 4.65 0.41-0.63 0.74-2.73 0.74-4.65 0-1.93-0.33-4.02-0.74-4.66-0.4-0.63-0.73 1.46-0.73 4.66zm355.73 21.25l0.23 22.25c0.1-35.8 0.47-43.38 1.1-42.99 0.54 0.33 1.09 0.13 1.21-0.45 0.13-0.59-0.45-1.06-1.27-1.06-1.3 0-1.47 3.03-1.27 22.25zm-857.8 5.75c0 14.57 0.14 20.42 0.32 13 0.17-7.43 0.17-19.35 0-26.5-0.18-7.15-0.32-1.08-0.32 13.5zm424.62-21.31c-0.59 1.54-0.83 3.03-0.52 3.31 0.31 0.27 0.88-0.63 1.27-2 0.46-1.66 0.89 0.53 1.26 6.5l0.56 9c0.47-14.79 0.18-18.63-0.46-19-0.57-0.34-1.52 0.64-2.11 2.19zm693.45-1.03c-0.46 0.37-0.77 1.61-0.69 2.75 0.15 2.08 0.16 2.08 1.64 0.09 1.36-1.83 1.49-1.34 1.52 5.75 0.01 4.52-0.39 7.75-0.97 7.75-0.55 0-0.99-0.56-0.97-1.25 0.01-0.69-0.21-1.03-0.49-0.75-0.29 0.27-0.19 1.97 0.22 3.77 0.41 1.8 1.3 3.26 1.99 3.25 0.92-0.02 1.25-2.9 1.25-11.02 0-8.5-0.3-11-1.34-11-0.73 0-1.7 0.3-2.16 0.66zm-181.79 2.79c-0.39 0.85-0.64 4.59-0.56 8.3l0.15 6.75c1.08-12.4 1.33-16.13 1.26-16.3-0.08-0.16-0.46 0.41-0.85 1.25zm-737.49 16.3l0.22 16.75 0.56-32.5c20 0.39 25.29 0.17 24.65-0.24-0.63-0.4-6.66-0.74-13.4-0.75l-12.25-0.01zm895.27-7.09c-0.45 0.37-0.75 6.22-0.66 13 0.09 7.05 0.59 12.55 1.16 12.84 0.64 0.32 1.1-4.42 1.25-13 0.14-7.43-0.01-13.5-0.33-13.5-0.32 0-0.96 0.3-1.42 0.66zm-445.28 18.09c-0.18 11.27-0.44 13.17-1.72 12.75-0.82-0.28-1.5-0.05-1.5 0.5 0 0.55 0.57 1.27 1.25 1.6 0.69 0.34 1.59 0.22 2.01-0.25 0.41-0.47 0.62-6.93 0.47-14.35l-0.29-13.5zm-390.73-7.56c-0.43 0.72-0.48 6.15-0.13 12.06 0.51 8.6 0.94 10.75 2.14 10.75 0.83 0 1.5-0.45 1.5-1 0-0.55-0.45-0.78-1-0.5-0.61 0.3-0.99-1.75-0.99-5.25 0-3.16-0.33-7.9-0.75-10.52-0.56-3.55-0.44-4.76 0.49-4.75 0.69 0.01 1.45 0.81 1.69 1.77 0.24 0.96 0.35 0.66 0.25-0.67-0.1-1.34-0.69-2.6-1.31-2.81-0.62-0.21-1.47 0.21-1.89 0.92zm445.65 13.06c-0.08 4.81 0.2 8.93 0.61 9.15 0.42 0.22 0.62-2.82 0.46-6.75-0.17-3.93-0.44-8.05-0.62-9.15-0.17-1.1-0.38 1.94-0.45 6.75zm274.36-2.68c-2.2 1.91-3.55 3.49-3 3.5 0.55 0.01 1.46-0.68 2.01-1.53 0.56-0.85 1.57-1.54 2.26-1.54 0.73 0 0.31 1.04-1.01 2.52-1.24 1.39-1.81 2.53-1.26 2.52 0.55 0 2.46-1.48 4.24-3.27 1.78-1.8 3.24-3.83 3.25-4.52 0.01-0.69-0.55-1.23-1.24-1.21-0.68 0.02-3.05 1.61-5.25 3.53zm-920 3.09c-0.46 0.37-0.78 2.96-0.71 5.75l0.12 5.09c6.66-6.11 8.71-8.25 8.84-8.69 0.14-0.45-0.42-0.59-1.25-0.31-0.82 0.27-1.72-0.18-2-1-0.27-0.83-1.32-1.5-2.33-1.5-1.01 0-2.21 0.3-2.67 0.66zm150.5 3.08c3.03 0.2 7.53 0.2 10-0.01 2.48-0.2 0-0.37-5.5-0.37-5.5 0.01-7.52 0.17-4.5 0.38zm283.03-13.24c0 3.59 0.28 4.58 0.97 3.5 0.54-0.83 0.97-2.4 0.97-3.5 0-1.1-0.43-2.68-0.97-3.5-0.69-1.08-0.97-0.1-0.97 3.5z"/>
		<path id="Path 3" class="s2" d="m534.5 75.67c-0.46 0.36-0.76 5.99-0.67 12.5l0.17 11.83c14.33 0 16.63-0.42 19-2 1.78-1.19 3.47-3.52 4.16-5.75 0.94-3.08 0.85-4.6-0.5-8.5-1.34-3.83-2.44-5.14-5.66-6.75-2.63-1.31-6-2-9.83-2-3.21 0-6.21 0.3-6.67 0.67zm74.03 16.95c-1.34 3.1-2.47 5.8-2.49 6-0.02 0.21-0.99 2.29-2.14 4.63-1.16 2.34-1.83 5.04-1.5 6 0.52 1.51 1.78 1.72 9.35 1.5 8.64-0.25 8.75-0.28 8.61-2.75-0.08-1.38-1.75-6.66-3.71-11.75-1.96-5.09-4.04-9.25-4.62-9.25-0.58 0-2.15 2.53-3.5 5.62zm253.63 0.63c-1.53 3.44-3.39 7.83-4.14 9.75-0.74 1.92-1.84 4.08-2.44 4.79q-1.08 1.29-0.08 2.33c0.59 0.61 4.56 0.9 9.66 0.71 4.76-0.18 9.04-0.68 9.5-1.11 0.46-0.43-1.04-5.71-3.33-11.75-2.29-6.03-4.67-10.97-5.28-10.97-0.62 0-2.37 2.81-3.89 6.25zm-327.49 11.91c-0.33 0.8-0.5 7.05-0.38 13.9l0.21 12.44c8.52 0.48 12.46 0.37 14.25 0.06 1.79-0.31 4.6-1.91 6.25-3.56 2.67-2.67 3-3.67 3-9 0-4.05-0.57-6.86-1.75-8.63-0.96-1.45-3.1-3.3-4.75-4.11-1.65-0.82-5.98-1.72-9.62-2.02-5.21-0.41-6.75-0.22-7.21 0.92z"/>
	</g>
</svg>